# xmcd
#
# Track frame offsets:
#	150
#	22088
#	35589
#	49615
#	69115
#	89740
#	103540
#	123790
#	137140
#	159303
#	170178
#	182441
#	192904
#	203442
#	223092
#	245255
#	259805
#	289730
#	307205
#	328393
#
# Disc length: 4600 seconds
#
# Revision: 0
# Processed by: cddbd v1.5.1PL0 Copyright (c) Steve Scherf et al.
# Submitted via: audiograbber 1.83.01
#
DISCID=2911f614
DTITLE=Muddy Waters - At Newport
DYEAR=1900
DGENRE=
TTITLE0=Muddy Waters - I Got My Brand On You
TTITLE1=Muddy Waters - (I'm Your) Hoochie Coochie Man
TTITLE2=Muddy Waters - Baby, Please Don't Go
TTITLE3=Muddy Waters - Soon Forgotten
TTITLE4=Muddy Waters - Tiger In Your Tank
TTITLE5=Muddy Waters - I Feel So Good
TTITLE6=Muddy Waters - I've Got My Mojo Working
TTITLE7=Muddy Waters - I've Got My Mojo Working, Part 2
TTITLE8=Muddy Waters - Goodbye Newport Blues
TTITLE9=Muddy Waters - I Got My Brand On You (Monaural Studios)
TTITLE10=Muddy Waters - Soon Forgotten (Monaural Studios)
TTITLE11=Muddy Waters - Tiger In Your Tank (Monaural Studios)
TTITLE12=Muddy Waters - Meanest Woman (Monaural Studios)
TTITLE13=Muddy Waters - I Just Want To Make Love To You
TTITLE14=Muddy Waters - I'm Your Hoochie Coochie Man
TTITLE15=Muddy Waters - Let's Spend The Night Together
TTITLE16=Muddy Waters - She's Alright
TTITLE17=Muddy Waters - Mannish Boy
TTITLE18=Muddy Waters - Herbert Harper's Free Press News
TTITLE19=Muddy Waters - Tom Cat
EXTD=
EXTT0=
EXTT1=
EXTT2=
EXTT3=
EXTT4=
EXTT5=
EXTT6=
EXTT7=
EXTT8=
EXTT9=
EXTT10=
EXTT11=
EXTT12=
EXTT13=
EXTT14=
EXTT15=
EXTT16=
EXTT17=
EXTT18=
EXTT19=
PLAYORDER=
